# xmcd
# Track frame offsets:
# 150
# 13740
# 26088
# 39538
# 55964
# 71798
# 86070
# 101147
# 114444
# 128133
#
# Disc length: 1924 seconds
# Revision: 0
# Processed by: cddbd v1.5.2PL0 Copyright (c) Steve Scherf et al.
# Submitted via: VisiTrax 2.9.10.228 - For more info visit www.synapsa.com
#
DISCID=8a07820a
DTITLE=Kathy Eisenhauer - Hearts
DYEAR=1900
DGENRE=
TTITLE0=My heart sais go
TTITLE1=Pearl handed heart
TTITLE2=Reassure me
TTITLE3=Sexy ways
TTITLE4=Your heart in the right place now
TTITLE5=Nothing can save love
TTITLE6=He's gonna get me
TTITLE7=You're inclined
TTITLE8=So much more
TTITLE9=Midnight promises
EXTD=
EXTT0=
EXTT1=
EXTT2=
EXTT3=
EXTT4=
EXTT5=
EXTT6=
EXTT7=
EXTT8=
EXTT9=
PLAYORDER=
